<?xml version="1.0" encoding="utf-8"?>
<svg version="1.1" id="_x32_" xmlns="http://www.w3.org/2000/svg" xmlns:xlink="http://www.w3.org/1999/xlink" x="0px" y="0px"
	 viewBox="0 0 512 512" style="enable-background:new 0 0 512 512;" xml:space="preserve">
<style type="text/css">
	.st0{fill:currentColor;}
</style>
<g>
	<path class="st0" d="M70.697,395.352h80.633c5.658,0,10.246-4.252,10.246-9.498v-143.72c0-5.246-4.588-9.499-10.246-9.499H70.697
		c-5.658,0-10.246,4.253-10.246,9.499v143.72C60.451,391.1,65.039,395.352,70.697,395.352z"/>
	<path class="st0" d="M215.684,395.352h80.631c5.658,0,10.248-4.252,10.248-9.498V141.117c0-5.246-4.59-9.498-10.248-9.498h-80.631
		c-5.66,0-10.248,4.252-10.248,9.498v244.736C205.436,391.1,210.024,395.352,215.684,395.352z"/>
	<path class="st0" d="M360.668,395.352h80.631c5.66,0,10.248-4.252,10.248-9.498V191.735c0-5.246-4.588-9.498-10.248-9.498h-80.631
		c-5.66,0-10.248,4.252-10.248,9.498v194.119C350.42,391.1,355.008,395.352,360.668,395.352z"/>
	<path class="st0" d="M451.549,446.883H40.205V60.451c0-10.465-8.527-18.992-18.992-18.992S2.221,49.986,2.221,60.451v406.424
		C2.221,485.668,17.412,512,40.205,512h411.344c10.465,0,18.992-8.527,18.992-18.992S462.014,446.883,451.549,446.883z"/>
</g>
</svg>