<?xml version="1.0" encoding="utf-8"?>
<svg version="1.1" id="_x32_" xmlns="http://www.w3.org/2000/svg" xmlns:xlink="http://www.w3.org/1999/xlink" x="0px" y="0px"
	 viewBox="0 0 512 512" style="enable-background:new 0 0 512 512;" xml:space="preserve">
<style type="text/css">
	.st0{fill:currentColor;}
</style>
<g>
	<path class="st0" d="M459.7,264.503L260.723,463.481c-6.19,6.19-14.599,9.673-23.358,9.673H100.648
		c-4.16,0-8.58-0.987-12.968-2.977c-4.363-1.974-8.629-4.942-12.257-8.588c-3.695-3.678-6.712-7.984-8.711-12.389
		c-2.014-4.404-3.01-8.824-3.01-13V299.491c0-8.759,3.475-17.168,9.673-23.374L300.972,48.521c3.262-3.246,6.948-5.628,10.912-7.242
		c5.938-2.414,12.512-3.034,18.758-1.811c6.264,1.224,12.137,4.184,17.03,9.053l83.776,83.793c3.263,3.262,5.644,6.949,7.259,10.904
		c2.414,5.922,3.034,12.496,1.811,18.743c-1.224,6.264-4.184,12.121-9.053,17.014L273.062,336.375l-1.2,1.2
		c-3.262,3.246-6.948,5.628-10.912,7.242c-5.922,2.414-12.496,3.034-18.742,1.811c-6.264-1.224-12.121-4.184-17.014-9.053
		L141.418,253.8c-9.757-9.757-15.624-23.228-15.624-38.117c0-14.873,5.867-28.344,15.624-38.101
		c9.757-9.757,23.228-15.624,38.101-15.624c14.889,0,28.36,5.867,38.117,15.624l62.776,62.776l128.288-128.272
		c9.757-9.757,15.624-23.228,15.624-38.101c0-14.889-5.867-28.36-15.624-38.117L324.924,51.092
		c-9.757-9.757-23.228-15.624-38.101-15.624c-14.889,0-28.36,5.867-38.117,15.624L21.11,278.688
		C7.526,292.272,0,310.651,0,329.783v183.552c0,14.873,5.867,28.344,15.624,38.101c9.757,9.757,23.228,15.624,38.101,15.624
		h183.552c19.132,0,37.511-7.526,51.095-21.11l204.596-204.596c9.757-9.757,15.624-23.228,15.624-38.101
		c0-14.889-5.867-28.36-15.624-38.117L408.192,181.36c-9.757-9.757-23.228-15.624-38.101-15.624
		c-14.889,0-28.36,5.867-38.117,15.624L203.686,309.648l-62.776-62.776c-9.757-9.757-23.228-15.624-38.101-15.624
		c-14.889,0-28.36,5.867-38.117,15.624c-9.757,9.757-15.624,23.228-15.624,38.101c0,14.889,5.867,28.36,15.624,38.117
		l83.776,83.776c4.879,4.879,10.646,8.677,16.998,11.187c6.352,2.51,13.137,3.697,19.922,3.496
		c6.785-0.201,13.57-1.789,19.713-4.679c6.143-2.89,11.646-7.082,16.221-12.357l1.2-1.2L379.924,260.91
		c9.757-9.757,15.624-23.228,15.624-38.101c0-14.889-5.867-28.36-15.624-38.117L295.148,100.916
		c-9.757-9.757-23.228-15.624-38.101-15.624c-14.889,0-28.36,5.867-38.117,15.624L48.658,271.188
		c-13.584,13.584-21.11,31.963-21.11,51.095v140.052c0,9.925,4.025,18.919,10.534,25.428c6.509,6.509,15.503,10.534,25.428,10.534
		h140.052c19.132,0,37.511-7.526,51.095-21.11L425.929,305.915c6.509-6.509,10.534-15.503,10.534-25.428
		c0-9.925-4.025-18.919-10.534-25.428L342.153,171.283c-6.509-6.509-15.503-10.534-25.428-10.534
		c-9.925,0-18.919,4.025-25.428,10.534L119.025,343.555l-45.268-45.268c-6.509-6.509-10.534-15.503-10.534-25.428
		c0-9.925,4.025-18.919,10.534-25.428c6.509-6.509,15.503-10.534,25.428-10.534c9.925,0,18.919,4.025,25.428,10.534
		l45.268,45.268L341.153,120.427c6.509-6.509,15.503-10.534,25.428-10.534c9.925,0,18.919,4.025,25.428,10.534
		l83.776,83.776c6.509,6.509,10.534,15.503,10.534,25.428c0,9.925-4.025,18.919-10.534,25.428L303.513,427.331
		c-6.509,6.509-15.503,10.534-25.428,10.534H137.533c-9.925,0-18.919-4.025-25.428-10.534
		c-6.509-6.509-10.534-15.503-10.534-25.428V261.851c0-19.132,7.526-37.511,21.11-51.095L353.953,43.484
		c13.584-13.584,31.963-21.11,51.095-21.11c19.132,0,37.511,7.526,51.095,21.11l83.776,83.776
		c13.584,13.584,21.11,31.963,21.11,51.095c0,19.132-7.526,37.511-21.11,51.095L459.7,264.503z"/>
</g>
</svg>