<?xml version="1.0" encoding="utf-8"?>
<svg version="1.1" id="Layer_1" xmlns="http://www.w3.org/2000/svg" xmlns:xlink="http://www.w3.org/1999/xlink" x="0px" y="0px"
	 viewBox="0 0 512 512" style="enable-background:new 0 0 512 512;" xml:space="preserve">
<style type="text/css">
	.st0{fill:currentColor;}
</style>
<path class="st0" d="M256,512C114.6,512,0,397.4,0,256S114.6,0,256,0s256,114.6,256,256S397.4,512,256,512z M256,25.6
	C128.8,25.6,25.6,128.8,25.6,256S128.8,486.4,256,486.4S486.4,383.2,486.4,256S383.2,25.6,256,25.6z M281.6,256
	c0,14.1-11.5,25.6-25.6,25.6s-25.6-11.5-25.6-25.6s11.5-25.6,25.6-25.6S281.6,241.9,281.6,256z M345.6,128
	c7.1,7.1,7.1,18.4,0,25.6l-64,64c-7.1,7.1-18.4,7.1-25.6,0c-7.1-7.1-7.1-18.4,0-25.6l64-64C327.2,120.9,338.5,120.9,345.6,128z
	 M153.6,358.4c-7.1-7.1-7.1-18.4,0-25.6l64-64c7.1-7.1,18.4-7.1,25.6,0c7.1,7.1,7.1,18.4,0,25.6l-64,64
	C172.1,365.5,160.7,365.5,153.6,358.4z M89.6,281.6c-10.6,0-19.2-8.6-19.2-19.2s8.6-19.2,19.2-19.2h128c10.6,0,19.2,8.6,19.2,19.2
	s-8.6,19.2-19.2,19.2H89.6z M275.2,217.6c10.6,0,19.2,8.6,19.2,19.2v128c0,10.6-8.6,19.2-19.2,19.2s-19.2-8.6-19.2-19.2v-128
	C256,226.2,264.6,217.6,275.2,217.6z"/>
</svg>