<svg xmlns="http://www.w3.org/2000/svg" width="24" height="24" viewBox="0 0 24 24" fill="currentColor">
<path d="M12 2c5.514 0 10 4.486 10 10 0 2.859-1.202 5.436-3.127 7.271-.715.681-1.854.729-2.365.729-.434 0-.807-.146-1.107-.401-.329-.28-.508-.675-.508-1.115 0-.961.551-1.49 1.049-1.958.502-.472.949-.896.949-1.526 0-.961-.551-1.49-1.049-1.958-.502-.472-.949-.896-.949-1.542 0-.961.551-1.49 1.049-1.958.502-.472.949-.896.949-1.526 0-.961-.551-1.49-1.049-1.958-.502-.472-.949-.896-.949-1.526 0-1.104.896-2 2-2 5.514 0 10 4.486 10 10zm-10-10c-6.627 0-12 5.373-12 12s5.373 12 12 12c6.627 0 12-5.373 12-12s-5.373-12-12-12zm2 16c0 1.104-.896 2-2 2s-2-.896-2-2 .896-2 2-2 2 .896 2 2zm3-4c0 1.104-.896 2-2 2s-2-.896-2-2 .896-2 2-2 2 .896 2 2zm-6 0c0 1.104-.896 2-2 2s-2-.896-2-2 .896-2 2-2 2 .896 2 2zm1-4c0 1.104-.896 2-2 2s-2-.896-2-2 .896-2 2-2 2 .896 2 2z"/>
</svg>