<?xml version="1.0" encoding="utf-8"?>
<svg version="1.1" id="_x32_" xmlns="http://www.w3.org/2000/svg" xmlns:xlink="http://www.w3.org/1999/xlink" x="0px" y="0px"
	 viewBox="0 0 512 512" style="enable-background:new 0 0 512 512;" xml:space="preserve">
<style type="text/css">
	.st0{fill:currentColor;}
</style>
<g>
	<path class="st0" d="M477.156,364.465c-1.266-9.234-5.625-17.891-12.484-24.75L413.906,289
		c-13.828-13.828-36.234-13.828-50.062,0l-26.297,26.297c-6.859,6.859-16.031,10.641-25.547,10.641
		c-9.516,0-18.688-3.781-25.547-10.641L152.781,181.625c-6.859-6.859-10.641-16.031-10.641-25.547
		s3.781-18.688,10.641-25.547l26.297-26.297c13.828-13.828,13.828-36.234,0-50.062L128.344,3.406
		c-6.859-6.859-15.516-11.219-24.75-12.484C94.359-10.344,85.469-8.844,78.609-2.516L27.844,48.25
		C10.969,65.125,0,88.656,0,113.781c0,98.375,39.844,187.438,104.219,251.813S255.875,470.031,354.25,470.031
		c25.125,0,48.656-10.969,65.531-27.844l50.766-50.766C476.875,384.563,478.375,375.672,477.156,364.465z"/>
</g>
</svg>