<?xml version="1.0" encoding="utf-8"?>
<svg version="1.1" id="_x32_" xmlns="http://www.w3.org/2000/svg" xmlns:xlink="http://www.w3.org/1999/xlink" x="0px" y="0px"
	 viewBox="0 0 512 512" style="enable-background:new 0 0 512 512;" xml:space="preserve">
<style type="text/css">
	.st0{fill:currentColor;}
</style>
<g>
	<path class="st0" d="M497.569,215.169l-55.341-13.064c-4.037-13.955-9.495-27.277-16.376-39.735l29.844-48.304
		c4.57-7.395,3.45-16.945-2.688-23.084l-31.992-31.991c-6.128-6.129-15.67-7.248-23.073-2.68l-48.286,29.854
		c-12.468-6.881-25.789-12.348-39.734-16.376l-13.064-55.368c-2-8.44-9.551-14.422-18.23-14.422h-45.24
		c-8.679,0-16.22,5.982-18.22,14.422L202.105,69.79c-13.955,4.028-27.276,9.478-39.735,16.376l-48.304-29.871
		c-7.386-4.551-16.945-3.441-23.084,2.697L58.992,90.974c-6.129,6.139-7.248,15.698-2.688,23.084l29.871,48.304
		c-6.881,12.459-12.348,25.78-16.376,39.735L14.431,215.169c-8.44,1.991-14.431,9.541-14.431,18.22v45.24
		c0,8.679,5.991,16.229,14.431,18.22l55.368,13.064c4.028,13.955,9.495,27.276,16.376,39.735l-29.871,48.304
		c-4.56,7.386-3.441,16.945,2.688,23.084l31.99,31.992c6.139,6.139,15.698,7.248,23.084,2.688l48.304-29.844
		c12.459,6.881,25.78,12.348,39.735,16.376l13.064,55.341c1.999,8.44,9.541,14.431,18.22,14.431h45.24
		c8.679,0,16.229-5.991,18.23-14.431l13.064-55.341c13.945-4.028,27.266-9.495,39.734-16.376l48.286,29.844
		c7.403,4.56,16.945,3.451,23.073-2.688l31.992-31.992c6.138-6.139,7.258-15.698,2.688-23.084l-29.844-48.304
		c6.881-12.459,12.339-25.78,16.376-39.735l55.341-13.064c8.44-1.991,14.431-9.541,14.431-18.22v-45.24
		C512,224.71,506.009,217.16,497.569,215.169z M256,342.126c-47.48,0-86.126-38.646-86.126-86.126s38.646-86.126,86.126-86.126
		s86.126,38.646,86.126,86.126S303.48,342.126,256,342.126z"/>
</g>
</svg>